<svg width="195" height="97" viewBox="0 0 195 97" fill="none" xmlns="http://www.w3.org/2000/svg">
<path fill-rule="evenodd" clip-rule="evenodd" d="M4.65459 0C4.05122 3.96499 3.20651 13.4723 4.65459 19.7818C6.10267 26.0913 14.1361 29.0478 17.9718 29.7374C18.3165 29.7805 19.2388 30.0994 20.1698 31.0303C21.1006 31.9612 22.4969 33.2712 23.0141 33.7454V43.4424L23.0141 77.1879L23.0142 77.1879V81.5839H2.76701C3.32221 82.7078 3.95363 83.7873 4.65451 84.8157V84.6869H49.2186C49.9907 83.5399 50.6768 82.33 51.2675 81.0667H30.0155C29.5029 81.8475 28.643 82.3596 27.6687 82.3596C26.0977 82.3596 24.8242 81.0283 24.8242 79.3859C24.8242 77.7436 26.0977 76.4122 27.6687 76.4122C28.5308 76.4122 29.3034 76.8132 29.825 77.4465H52.6501C53.0035 76.2716 53.2786 75.0629 53.4696 73.8263H30.5131H26.3757L26.3757 42.8007L26.3757 21.8506C29.6436 21.8556 30.3818 22.0539 32.4514 22.6097C32.7622 22.6932 33.103 22.7847 33.4869 22.8849C35.8659 23.5055 38.4 23.04 39.9516 22.1091C44.6061 19.3164 47.2782 14.9118 49.0021 11.3778C43.872 12.9857 41.2812 13.0066 39.0278 13.0248C37.476 13.0373 36.0842 13.0485 34.1334 13.5758C31.5067 14.2857 29.3064 18.1441 28.5738 20.1697C30.4356 20.48 36.0728 18.8337 38.6586 17.9717C33.2993 21.0053 28.3271 21.1556 26.3757 20.8387V13.3172L23.0141 14.2222V31.806C18.5319 28.5736 9.25741 20.3765 8.53338 13.4465C10.8176 17.4977 16.3427 26.143 20.1698 28.3152C23.5314 16.9374 18.6182 12.4121 12.9293 9.1798C8.37823 6.59394 5.51654 1.98249 4.65459 0ZM64 25.2122C43.4356 17.9541 38.8292 29.2572 36.627 34.6609C36.4754 35.0328 36.3352 35.3768 36.202 35.6849L33.3576 38.5293V28.0444L30.5131 27.1515L30.5131 43.0374L30.5131 70.2061H53.781C53.7843 70.0341 53.7859 69.8616 53.7859 69.6888C53.7859 58.601 47.0758 49.0805 37.495 44.9664V63.8983C37.9759 64.4309 38.2708 65.1492 38.2708 65.9394C38.2708 67.5818 36.9973 68.9132 35.4263 68.9132C33.8554 68.9132 32.5819 67.5818 32.5819 65.9394C32.5819 65.1493 32.8767 64.4311 33.3576 63.8985V43.5779L33.3576 40.598C39.1499 31.9095 45.6404 29.4788 50.0364 28.4445C44.3475 31.0303 40.3394 33.3576 37.7535 36.7192C42.796 40.8566 46.5933 39.9516 53.6566 32.3233C59.1242 26.4182 62.4916 25.3845 64 25.2122ZM26.8929 96.5818C19.5275 96.5818 12.8537 93.6208 7.99682 88.8243H45.7891C40.9322 93.6208 34.2584 96.5818 26.8929 96.5818ZM18.8767 44.0109L18.8767 77.1879L1.05946 77.1879C0.790413 76.2595 0.570063 75.3104 0.401355 74.3435H13.082C13.5875 74.8254 14.2599 75.1192 14.9979 75.1192C16.5689 75.1192 17.8424 73.7878 17.8424 72.1455C17.8424 70.5031 16.5689 69.1718 14.9979 69.1718C14.2599 69.1718 13.5875 69.4656 13.082 69.9475H0.00121859C0.000406799 69.8614 0 69.7751 0 69.6888C0 57.6281 7.9393 47.4217 18.8767 44.0109ZM36.9778 65.8101C36.9778 66.667 36.2832 67.3617 35.4263 67.3617C34.5694 67.3617 33.8748 66.667 33.8748 65.8101C33.8748 64.9533 34.5694 64.2586 35.4263 64.2586C36.2832 64.2586 36.9778 64.9533 36.9778 65.8101ZM16.5495 72.2748C16.5495 73.1317 15.8549 73.8263 14.998 73.8263C14.1411 73.8263 13.4465 73.1317 13.4465 72.2748C13.4465 71.4179 14.1411 70.7233 14.998 70.7233C15.8549 70.7233 16.5495 71.4179 16.5495 72.2748ZM27.6687 81.0667C28.5256 81.0667 29.2202 80.3721 29.2202 79.5152C29.2202 78.6583 28.5256 77.9637 27.6687 77.9637C26.8118 77.9637 26.1172 78.6583 26.1172 79.5152C26.1172 80.3721 26.8118 81.0667 27.6687 81.0667Z" fill="#5ABF1B"/>
<path fill-rule="evenodd" clip-rule="evenodd" d="M76.0044 58.409C75.7553 58.409 75.5184 58.4451 75.2875 58.5233C75.0597 58.6015 74.8531 58.7158 74.6678 58.8662C74.4825 59.0165 74.3276 59.188 74.2061 59.3834C74.0816 59.5789 73.9935 59.7684 73.9357 59.9489C73.878 60.1324 73.8203 60.388 73.7626 60.7128H77.824C77.8331 60.5745 77.8362 60.4571 77.8362 60.3579C77.8362 59.9368 77.7602 59.573 77.6083 59.2722C77.4565 58.9714 77.2408 58.7518 76.9583 58.6165C76.6727 58.4782 76.3568 58.409 76.0044 58.409ZM107.578 55.5669C107.873 55.5669 108.201 55.609 108.562 55.6902C108.572 56.5744 108.593 57.3083 108.623 57.8827L108.711 59.7624C108.259 59.6301 107.836 59.5669 107.445 59.5669C106.952 59.5669 106.527 59.6361 106.172 59.7805C105.813 59.9218 105.497 60.1353 105.224 60.424C104.948 60.7128 104.729 61.0737 104.565 61.5038C104.401 61.9338 104.285 62.6166 104.222 63.5519C104.155 64.4872 104.121 65.5549 104.121 66.7579C104.121 67.1789 104.14 67.7052 104.173 68.3308C103.374 68.3128 102.575 68.3038 101.77 68.3038C100.971 68.3038 100.118 68.3128 99.2063 68.3308L99.5891 62.9173L99.7106 59.8106C99.7197 59.2482 99.7227 58.6767 99.7227 58.0902C99.7227 57.4977 99.7136 56.7639 99.6984 55.8857C100.692 55.9008 101.479 55.9097 102.062 55.9097C102.742 55.9097 103.529 55.9008 104.413 55.8857L104.361 57.2631C104.683 56.9052 104.945 56.6376 105.151 56.4631C105.358 56.2887 105.592 56.1293 105.853 55.9879C106.117 55.8466 106.39 55.7414 106.679 55.6722C106.965 55.603 107.265 55.5669 107.578 55.5669ZM91.7731 55.5669C92.7421 55.5669 93.6291 55.6752 94.4341 55.8918C95.2391 56.1053 95.8679 56.4541 96.3175 56.9323C96.7701 57.4135 96.9949 58.0992 96.9949 58.9924C96.9949 59.4466 96.9341 60.4722 96.8126 62.0632C96.6881 63.6572 96.5939 65.7443 96.5301 68.3308C95.7251 68.3128 94.9232 68.3038 94.1273 68.3038C93.3557 68.3038 92.5325 68.3128 91.6637 68.3308C91.7761 67.4346 91.9007 65.591 92.0343 62.797C91.7245 62.9414 91.4815 63.0466 91.3053 63.1128C91.1291 63.179 90.8192 63.2752 90.3788 63.4045C89.9353 63.5369 89.589 63.6451 89.3399 63.7353C89.0908 63.8225 88.8721 63.9369 88.6898 64.0752C88.5045 64.2135 88.3739 64.3549 88.2949 64.5022C88.219 64.6496 88.1795 64.8121 88.1795 64.9895C88.1795 65.2662 88.2888 65.5007 88.5106 65.6962C88.7323 65.8917 89.0847 65.9879 89.5708 65.9879C89.7439 65.9879 89.9262 65.9759 90.1236 65.9459C90.3211 65.9188 90.5914 65.8466 90.9377 65.7323C90.6978 66.3579 90.4152 67.2722 90.0872 68.4752C89.3824 68.5895 88.7141 68.6466 88.0793 68.6466C87.0616 68.6466 86.2141 68.5053 85.5398 68.2256C84.8623 67.9459 84.3399 67.4918 83.9753 66.8662C83.6108 66.2406 83.4285 65.6151 83.4285 64.9895C83.4285 64.6075 83.4954 64.2346 83.629 63.8677C83.7657 63.5038 83.9753 63.1459 84.2639 62.797C84.5525 62.4451 84.8866 62.1474 85.2724 61.9008C85.6582 61.6511 86.1868 61.4195 86.8551 61.2C87.5234 60.9804 88.3709 60.7729 89.3946 60.5774C89.8229 60.4962 90.2147 60.409 90.5702 60.3158C90.9286 60.2226 91.1807 60.1413 91.3326 60.0722C91.4845 60.003 91.609 59.9218 91.7032 59.8285C91.7974 59.7353 91.8642 59.6361 91.9067 59.5368C91.9462 59.4346 91.9675 59.3263 91.9675 59.212C91.9675 58.9022 91.8369 58.6647 91.5726 58.4992C91.3114 58.3338 90.9256 58.2496 90.4183 58.2496C89.0057 58.2496 87.2621 58.6436 85.1874 59.4316C85.3423 58.6286 85.4425 58.0722 85.482 57.7684C85.5245 57.4647 85.5883 56.9865 85.6795 56.3369C88.0428 55.8226 90.075 55.5669 91.7731 55.5669ZM75.9771 55.5669C76.9127 55.5669 77.8058 55.6752 78.6563 55.8918C79.5069 56.1053 80.2268 56.4812 80.8161 57.0196C81.4085 57.5549 81.8277 58.1594 82.0798 58.8331C82.3289 59.5098 82.4534 60.2376 82.4534 61.0165C82.4534 61.4797 82.4018 61.997 82.2924 62.5654L73.6624 62.5775C73.6563 62.7068 73.6502 62.8241 73.6502 62.9293C73.6502 63.8015 73.9661 64.4451 74.598 64.8571C75.2328 65.2721 76.0044 65.4767 76.9127 65.4767C77.4564 65.4767 78.0731 65.4136 78.7657 65.2872C79.4613 65.1639 80.3149 64.9504 81.3326 64.6496C81.2262 65.1368 81.0227 66.3158 80.7189 68.1834C79.7651 68.3699 78.9662 68.4932 78.3161 68.5564C77.6691 68.6165 77.0129 68.6466 76.3477 68.6466C75.3695 68.6466 74.4734 68.5805 73.6502 68.4451C72.83 68.3128 72.1223 68.0752 71.5269 67.7323C70.9315 67.3925 70.4333 66.9684 70.0323 66.4601C69.6313 65.9519 69.3245 65.3504 69.1149 64.6526C68.9053 63.9549 68.8021 63.2361 68.8021 62.4963C68.8021 61.4587 69.0116 60.4421 69.4278 59.4466C69.847 58.4511 70.3877 57.6752 71.0469 57.1158C71.7091 56.5534 72.4685 56.1564 73.3312 55.9218C74.1939 55.6872 75.0749 55.5669 75.9771 55.5669ZM116.375 52.6316C116.318 53.6962 116.278 54.8421 116.251 56.0691H119.061C118.994 57.7594 118.96 58.8752 118.96 59.4196H116.129L115.98 62.4661C115.962 62.9233 115.956 63.2151 115.956 63.3444C115.956 63.7354 115.999 64.0602 116.084 64.3188C116.172 64.5805 116.324 64.7669 116.539 64.8812C116.758 64.9925 116.998 65.0496 117.262 65.0496C117.457 65.0496 117.663 65.0376 117.876 65.0075C118.092 64.9804 118.468 64.8932 119.009 64.7459C118.863 65.4286 118.736 66.0962 118.629 66.7458L118.359 68.2316C117.545 68.4121 116.91 68.5233 116.454 68.5744C115.999 68.6226 115.558 68.6466 115.133 68.6466C114.434 68.6466 113.815 68.5864 113.274 68.4691C112.73 68.3519 112.281 68.1353 111.919 67.8226C111.558 67.5098 111.312 67.1519 111.181 66.7458C111.05 66.3398 110.983 65.9067 110.983 65.4526C110.983 65.3714 110.986 65.227 110.996 65.0195C111.005 64.812 111.032 64.3519 111.081 63.6361L111.351 59.4196H109.431C109.474 58.8602 109.51 58.1203 109.544 57.2L109.58 56.0691H111.618C111.67 55.6932 111.731 54.8782 111.804 53.618L113.912 53.191C114.298 53.1188 115.118 52.9323 116.375 52.6316ZM121.275 51.6932C122.314 51.7082 123.165 51.7173 123.821 51.7173C124.708 51.7173 125.543 51.7082 126.33 51.6932L126.075 54.6406C126.035 55.1278 125.968 56.1173 125.88 57.603C126.151 57.2632 126.372 57.0075 126.546 56.8421C126.716 56.6737 126.907 56.5203 127.117 56.3789C127.326 56.2376 127.539 56.1173 127.758 56.018C127.973 55.9218 128.225 55.8376 128.508 55.7624C128.79 55.6902 129.1 55.6331 129.444 55.591C129.784 55.5519 130.133 55.5308 130.495 55.5308C131.19 55.5308 131.868 55.609 132.518 55.7624C133.171 55.9188 133.727 56.1865 134.185 56.5745C134.644 56.9594 134.957 57.3894 135.121 57.8646C135.285 58.3398 135.367 58.8632 135.367 59.4316C135.367 59.6512 135.361 59.9429 135.349 60.3038C135.337 60.6647 135.309 61.1218 135.27 61.6752L134.999 65.7834C134.966 66.2947 134.948 66.7188 134.945 67.0556C134.939 67.3925 134.939 67.8165 134.939 68.3308C134.085 68.3128 133.268 68.3038 132.487 68.3038C131.609 68.3038 130.716 68.3128 129.814 68.3308C129.954 67.2481 130.075 66.003 130.182 64.5925C130.288 63.185 130.34 62.1323 130.34 61.4436C130.34 60.6797 130.179 60.1413 129.854 59.8346C129.529 59.5248 129.1 59.3714 128.566 59.3714C128.089 59.3714 127.666 59.4676 127.296 59.6631C126.968 59.8345 126.679 60.0992 126.433 60.4571C126.221 60.7549 126.044 61.191 125.905 61.7594C125.741 62.4512 125.613 63.4707 125.522 64.818C125.473 65.5669 125.425 66.7368 125.376 68.3308C124.55 68.3128 123.775 68.3038 123.052 68.3038C122.323 68.3038 121.442 68.3128 120.409 68.3308C120.54 67.1188 120.634 66.1233 120.692 65.3444C120.807 63.7113 120.929 61.8136 121.05 59.6511C121.126 58.2226 121.181 56.8481 121.217 55.5308C121.254 54.2165 121.275 52.9353 121.275 51.6932Z" fill="#5ABF1B"/>
<path fill-rule="evenodd" clip-rule="evenodd" d="M136.606 60.1624C137.77 60.1955 138.87 60.2105 139.905 60.2105C140.956 60.2105 142.059 60.1955 143.216 60.1624C143.119 61.215 143.055 62.3459 143.031 63.5519C141.868 63.5278 140.762 63.5158 139.72 63.5158C138.678 63.5158 137.579 63.5278 136.421 63.5519C136.518 62.3699 136.582 61.2391 136.606 60.1624Z" fill="#5ABF1B"/>
<path fill-rule="evenodd" clip-rule="evenodd" d="M159.899 59.1519C159.374 59.1519 158.906 59.2842 158.496 59.5549C158.086 59.8226 157.776 60.2135 157.567 60.7308C157.357 61.2451 157.254 61.8075 157.254 62.4181C157.254 63.3113 157.478 63.997 157.928 64.4722C158.381 64.9474 158.946 65.185 159.629 65.185C160.146 65.185 160.61 65.0496 161.02 64.7759C161.43 64.5052 161.74 64.1023 161.95 63.57C162.159 63.0376 162.263 62.4661 162.263 61.8586C162.263 61.3534 162.181 60.8992 162.017 60.4932C161.853 60.0872 161.582 59.7624 161.209 59.5158C160.838 59.2721 160.401 59.1519 159.899 59.1519ZM159.985 55.5669C161.002 55.5669 161.98 55.7233 162.922 56.0301C163.861 56.3399 164.656 56.785 165.304 57.3654C165.951 57.9459 166.43 58.6256 166.737 59.4015C167.044 60.1774 167.199 61.0136 167.199 61.9068C167.199 62.776 167.062 63.603 166.786 64.388C166.513 65.1699 166.048 65.9067 165.389 66.5925C164.732 67.2782 163.897 67.7925 162.886 68.1354C161.871 68.4752 160.799 68.6466 159.666 68.6466C158.624 68.6466 157.621 68.4962 156.661 68.1955C155.701 67.8947 154.899 67.4557 154.255 66.8782C153.611 66.3008 153.125 65.612 152.8 64.806C152.478 64.003 152.314 63.1579 152.314 62.2707C152.314 61.3865 152.472 60.5414 152.788 59.7354C153.104 58.9324 153.605 58.2075 154.292 57.5669C154.975 56.9263 155.823 56.4301 156.834 56.0872C157.843 55.7413 158.894 55.5669 159.985 55.5669ZM168.28 51.6932C170.61 51.7082 173.326 51.7173 176.428 51.7173L179.468 51.7052H182.421L184.022 51.6932L183.946 52.8872C183.915 53.5248 183.891 54.0541 183.879 54.4751C183.867 54.8932 183.861 55.209 183.861 55.4226C182.105 55.3323 180.659 55.2872 179.52 55.2872H178.657C178.533 56.7218 178.439 58.0481 178.372 59.2662C178.284 61.0105 178.211 62.7037 178.162 64.3458C178.113 65.988 178.089 67.3143 178.089 68.3308C176.743 68.3128 175.875 68.3038 175.48 68.3038C175.127 68.3038 174.183 68.3128 172.652 68.3308C173.059 64.3789 173.302 60.0331 173.384 55.2872L168.144 55.4226L168.205 54.0692C168.238 53.3444 168.262 52.5533 168.28 51.6932ZM145.048 51.6932C146.485 51.7082 147.448 51.7173 147.931 51.7173C148.153 51.7173 149.037 51.7082 150.58 51.6932C150.434 53.5218 150.312 55.2511 150.221 56.8842C150.106 59.1609 150.024 61.2872 149.975 63.2662C149.927 65.2451 149.902 66.9323 149.902 68.3308L147.378 68.3038C146.886 68.3038 145.877 68.3128 144.353 68.3308C144.823 61.8045 145.06 56.782 145.06 53.2632L145.048 51.6932Z" fill="#5ABF1B"/>
</svg>
