<svg width="137" height="137" viewBox="0 0 137 137" fill="none" xmlns="http://www.w3.org/2000/svg">
<path fill-rule="evenodd" clip-rule="evenodd" d="M46.6546 0C46.0512 3.96499 45.2065 13.4723 46.6546 19.7818C48.1027 26.0913 56.1361 29.0478 59.9718 29.7374C60.3165 29.7805 61.2388 30.0994 62.1698 31.0303C63.1006 31.9612 64.4969 33.2712 65.0141 33.7454V43.4424L65.0141 77.1879L65.0142 77.1879V81.5839H44.767C45.3222 82.7078 45.9536 83.7873 46.6545 84.8157V84.6869H91.2186C91.9907 83.5399 92.6768 82.33 93.2675 81.0667H72.0155C71.5029 81.8475 70.643 82.3596 69.6687 82.3596C68.0977 82.3596 66.8242 81.0283 66.8242 79.3859C66.8242 77.7436 68.0977 76.4122 69.6687 76.4122C70.5308 76.4122 71.3034 76.8132 71.825 77.4465H94.6501C95.0035 76.2716 95.2786 75.0629 95.4696 73.8263H72.5131H68.3757L68.3757 42.8007L68.3757 21.8506C71.6436 21.8556 72.3818 22.0539 74.4514 22.6097C74.7622 22.6932 75.103 22.7847 75.4869 22.8849C77.8659 23.5055 80.4 23.04 81.9516 22.1091C86.6061 19.3164 89.2782 14.9118 91.0021 11.3778C85.872 12.9857 83.2812 13.0066 81.0278 13.0248C79.476 13.0373 78.0842 13.0485 76.1334 13.5758C73.5067 14.2857 71.3064 18.1441 70.5738 20.1697C72.4356 20.48 78.0728 18.8337 80.6586 17.9717C75.2993 21.0053 70.3271 21.1556 68.3757 20.8387V13.3172L65.0141 14.2222V31.806C60.5319 28.5736 51.2574 20.3765 50.5334 13.4465C52.8176 17.4977 58.3427 26.143 62.1698 28.3152C65.5314 16.9374 60.6182 12.4121 54.9293 9.1798C50.3782 6.59394 47.5165 1.98249 46.6546 0ZM106 25.2122C85.4356 17.9541 80.8292 29.2572 78.627 34.6609C78.4754 35.0328 78.3352 35.3768 78.202 35.6849L75.3576 38.5293V28.0444L72.5131 27.1515L72.5131 43.0374L72.5131 70.2061H95.781C95.7843 70.0341 95.7859 69.8616 95.7859 69.6888C95.7859 58.601 89.0758 49.0805 79.495 44.9664V63.8983C79.9759 64.4309 80.2708 65.1492 80.2708 65.9394C80.2708 67.5818 78.9973 68.9132 77.4263 68.9132C75.8554 68.9132 74.5819 67.5818 74.5819 65.9394C74.5819 65.1493 74.8767 64.4311 75.3576 63.8985V43.5779L75.3576 40.598C81.1499 31.9095 87.6404 29.4788 92.0364 28.4445C86.3475 31.0303 82.3394 33.3576 79.7535 36.7192C84.796 40.8566 88.5933 39.9516 95.6566 32.3233C101.124 26.4182 104.492 25.3845 106 25.2122ZM68.8929 96.5818C61.5275 96.5818 54.8537 93.6208 49.9968 88.8243H87.7891C82.9322 93.6208 76.2584 96.5818 68.8929 96.5818ZM60.8767 44.0109L60.8767 77.1879L43.0595 77.1879C42.7904 76.2595 42.5701 75.3104 42.4014 74.3435H55.082C55.5875 74.8254 56.2599 75.1192 56.9979 75.1192C58.5689 75.1192 59.8424 73.7878 59.8424 72.1455C59.8424 70.5031 58.5689 69.1718 56.9979 69.1718C56.2599 69.1718 55.5875 69.4656 55.082 69.9475H42.0012C42.0004 69.8614 42 69.7751 42 69.6888C42 57.6281 49.9393 47.4217 60.8767 44.0109ZM78.9778 65.8101C78.9778 66.667 78.2832 67.3617 77.4263 67.3617C76.5694 67.3617 75.8748 66.667 75.8748 65.8101C75.8748 64.9533 76.5694 64.2586 77.4263 64.2586C78.2832 64.2586 78.9778 64.9533 78.9778 65.8101ZM58.5495 72.2748C58.5495 73.1317 57.8549 73.8263 56.998 73.8263C56.1411 73.8263 55.4465 73.1317 55.4465 72.2748C55.4465 71.4179 56.1411 70.7233 56.998 70.7233C57.8549 70.7233 58.5495 71.4179 58.5495 72.2748ZM69.6687 81.0667C70.5256 81.0667 71.2202 80.3721 71.2202 79.5152C71.2202 78.6583 70.5256 77.9637 69.6687 77.9637C68.8118 77.9637 68.1172 78.6583 68.1172 79.5152C68.1172 80.3721 68.8118 81.0667 69.6687 81.0667Z" fill="#5ABF1B"/>
<path fill-rule="evenodd" clip-rule="evenodd" d="M18.0044 115.409C17.7553 115.409 17.5184 115.445 17.2875 115.523C17.0597 115.602 16.8531 115.716 16.6678 115.866C16.4825 116.017 16.3276 116.188 16.2061 116.383C16.0816 116.579 15.9935 116.768 15.9357 116.949C15.878 117.132 15.8203 117.388 15.7626 117.713H19.824C19.8331 117.574 19.8362 117.457 19.8362 117.358C19.8362 116.937 19.7602 116.573 19.6083 116.272C19.4565 115.971 19.2408 115.752 18.9583 115.617C18.6727 115.478 18.3568 115.409 18.0044 115.409ZM49.5782 112.567C49.8729 112.567 50.2009 112.609 50.5624 112.69C50.5715 113.574 50.5928 114.308 50.6232 114.883L50.7113 116.762C50.2586 116.63 49.8364 116.567 49.4446 116.567C48.9525 116.567 48.5272 116.636 48.1717 116.78C47.8133 116.922 47.4974 117.135 47.224 117.424C46.9476 117.713 46.7289 118.074 46.5648 118.504C46.4008 118.934 46.2854 119.617 46.2216 120.552C46.1547 121.487 46.1213 122.555 46.1213 123.758C46.1213 124.179 46.1395 124.705 46.173 125.331C45.374 125.313 44.5751 125.304 43.7701 125.304C42.9712 125.304 42.1176 125.313 41.2063 125.331L41.5891 119.917L41.7106 116.811C41.7197 116.248 41.7227 115.677 41.7227 115.09C41.7227 114.498 41.7136 113.764 41.6984 112.886C42.6918 112.901 43.4785 112.91 44.0618 112.91C44.7422 112.91 45.529 112.901 46.4129 112.886L46.3613 114.263C46.6833 113.905 46.9445 113.638 47.1511 113.463C47.3576 113.289 47.5916 113.129 47.8528 112.988C48.1171 112.847 48.3905 112.741 48.6791 112.672C48.9646 112.603 49.2653 112.567 49.5782 112.567ZM33.7731 112.567C34.7421 112.567 35.6291 112.675 36.4341 112.892C37.2391 113.105 37.8679 113.454 38.3175 113.932C38.7701 114.414 38.9949 115.099 38.9949 115.992C38.9949 116.447 38.9341 117.472 38.8126 119.063C38.6881 120.657 38.5939 122.744 38.5301 125.331C37.7251 125.313 36.9232 125.304 36.1273 125.304C35.3557 125.304 34.5325 125.313 33.6637 125.331C33.7761 124.435 33.9007 122.591 34.0343 119.797C33.7245 119.941 33.4815 120.047 33.3053 120.113C33.1291 120.179 32.8192 120.275 32.3788 120.405C31.9353 120.537 31.589 120.645 31.3399 120.735C31.0908 120.823 30.8721 120.937 30.6898 121.075C30.5045 121.214 30.3739 121.355 30.2949 121.502C30.219 121.65 30.1795 121.812 30.1795 121.99C30.1795 122.266 30.2888 122.501 30.5106 122.696C30.7323 122.892 31.0847 122.988 31.5708 122.988C31.7439 122.988 31.9262 122.976 32.1236 122.946C32.3211 122.919 32.5914 122.847 32.9377 122.732C32.6978 123.358 32.4152 124.272 32.0872 125.475C31.3824 125.589 30.7141 125.647 30.0793 125.647C29.0616 125.647 28.2141 125.505 27.5398 125.226C26.8623 124.946 26.3399 124.492 25.9753 123.866C25.6108 123.241 25.4285 122.615 25.4285 121.99C25.4285 121.608 25.4954 121.235 25.629 120.868C25.7657 120.504 25.9753 120.146 26.2639 119.797C26.5525 119.445 26.8866 119.147 27.2724 118.901C27.6582 118.651 28.1868 118.42 28.8551 118.2C29.5234 117.98 30.3709 117.773 31.3946 117.577C31.8229 117.496 32.2147 117.409 32.5702 117.316C32.9286 117.223 33.1807 117.141 33.3326 117.072C33.4845 117.003 33.609 116.922 33.7032 116.829C33.7974 116.735 33.8642 116.636 33.9067 116.537C33.9462 116.435 33.9675 116.326 33.9675 116.212C33.9675 115.902 33.8369 115.665 33.5726 115.499C33.3114 115.334 32.9256 115.25 32.4183 115.25C31.0057 115.25 29.2621 115.644 27.1874 116.432C27.3423 115.629 27.4425 115.072 27.482 114.768C27.5245 114.465 27.5883 113.986 27.6795 113.337C30.0428 112.823 32.075 112.567 33.7731 112.567ZM17.9771 112.567C18.9127 112.567 19.8058 112.675 20.6563 112.892C21.5069 113.105 22.2268 113.481 22.8161 114.02C23.4085 114.555 23.8277 115.159 24.0798 115.833C24.3289 116.51 24.4534 117.238 24.4534 118.017C24.4534 118.48 24.4018 118.997 24.2924 119.565L15.6624 119.577C15.6563 119.707 15.6502 119.824 15.6502 119.929C15.6502 120.802 15.9661 121.445 16.598 121.857C17.2328 122.272 18.0044 122.477 18.9127 122.477C19.4564 122.477 20.0731 122.414 20.7657 122.287C21.4613 122.164 22.3149 121.95 23.3326 121.65C23.2262 122.137 23.0227 123.316 22.7189 125.183C21.7651 125.37 20.9662 125.493 20.3161 125.556C19.6691 125.617 19.0129 125.647 18.3477 125.647C17.3695 125.647 16.4734 125.58 15.6502 125.445C14.83 125.313 14.1223 125.075 13.5269 124.732C12.9315 124.392 12.4333 123.968 12.0323 123.46C11.6313 122.952 11.3245 122.35 11.1149 121.653C10.9053 120.955 10.8021 120.236 10.8021 119.496C10.8021 118.459 11.0116 117.442 11.4278 116.447C11.847 115.451 12.3877 114.675 13.0469 114.116C13.7091 113.553 14.4685 113.156 15.3312 112.922C16.1939 112.687 17.0749 112.567 17.9771 112.567ZM58.3754 109.632C58.3177 110.696 58.2782 111.842 58.2508 113.069H61.0607C60.9939 114.759 60.9605 115.875 60.9605 116.42H58.1293L57.9805 119.466C57.9622 119.923 57.9562 120.215 57.9562 120.344C57.9562 120.735 57.9987 121.06 58.0837 121.319C58.1718 121.58 58.3237 121.767 58.5394 121.881C58.7581 121.992 58.9981 122.05 59.2624 122.05C59.4568 122.05 59.6634 122.038 59.876 122.007C60.0917 121.98 60.4683 121.893 61.009 121.746C60.8632 122.429 60.7357 123.096 60.6293 123.746L60.359 125.232C59.5449 125.412 58.91 125.523 58.4544 125.574C57.9987 125.623 57.5582 125.647 57.1329 125.647C56.4343 125.647 55.8146 125.586 55.2739 125.469C54.7301 125.352 54.2806 125.135 53.9191 124.823C53.5576 124.51 53.3115 124.152 53.1809 123.746C53.0503 123.34 52.9835 122.907 52.9835 122.453C52.9835 122.371 52.9865 122.227 52.9956 122.02C53.0047 121.812 53.0321 121.352 53.0807 120.636L53.351 116.42H51.4312C51.4737 115.86 51.5102 115.12 51.5436 114.2L51.5801 113.069H53.6183C53.67 112.693 53.7307 111.878 53.8036 110.618L55.9118 110.191C56.2976 110.119 57.1178 109.932 58.3754 109.632ZM63.2752 108.693C64.3141 108.708 65.1646 108.717 65.8208 108.717C66.7078 108.717 67.5431 108.708 68.3299 108.693L68.0747 111.641C68.0352 112.128 67.9684 113.117 67.8803 114.603C68.1507 114.263 68.3724 114.008 68.5456 113.842C68.7157 113.674 68.9071 113.52 69.1167 113.379C69.3263 113.238 69.5389 113.117 69.7576 113.018C69.9733 112.922 70.2254 112.838 70.5079 112.762C70.7904 112.69 71.1003 112.633 71.4435 112.591C71.7837 112.552 72.1331 112.531 72.4946 112.531C73.1902 112.531 73.8676 112.609 74.5177 112.762C75.1708 112.919 75.7267 113.186 76.1854 113.574C76.6441 113.959 76.9569 114.389 77.121 114.865C77.285 115.34 77.367 115.863 77.367 116.432C77.367 116.651 77.361 116.943 77.3488 117.304C77.3367 117.665 77.3093 118.122 77.2698 118.675L76.9995 122.783C76.9661 123.295 76.9478 123.719 76.9448 124.056C76.9387 124.392 76.9387 124.817 76.9387 125.331C76.0851 125.313 75.268 125.304 74.4873 125.304C73.6094 125.304 72.7163 125.313 71.8141 125.331C71.9539 124.248 72.0754 123.003 72.1817 121.592C72.288 120.185 72.3397 119.132 72.3397 118.444C72.3397 117.68 72.1787 117.141 71.8536 116.835C71.5286 116.525 71.1003 116.371 70.5657 116.371C70.0887 116.371 69.6665 116.468 69.2959 116.663C68.9678 116.835 68.6792 117.099 68.4332 117.457C68.2205 117.755 68.0444 118.191 67.9046 118.759C67.7406 119.451 67.613 120.471 67.5219 121.818C67.4733 122.567 67.4247 123.737 67.3761 125.331C66.5498 125.313 65.7752 125.304 65.0522 125.304C64.3232 125.304 63.4422 125.313 62.4094 125.331C62.54 124.119 62.6342 123.123 62.6919 122.344C62.8074 120.711 62.9289 118.814 63.0504 116.651C63.1263 115.223 63.181 113.848 63.2175 112.531C63.2539 111.217 63.2752 109.935 63.2752 108.693Z" fill="#5ABF1B"/>
<path fill-rule="evenodd" clip-rule="evenodd" d="M78.6064 117.162C79.7699 117.196 80.8695 117.211 81.9054 117.211C82.9564 117.211 84.0591 117.196 85.2165 117.162C85.1193 118.215 85.0555 119.346 85.0312 120.552C83.8677 120.528 82.762 120.516 81.7201 120.516C80.6781 120.516 79.5785 120.528 78.4211 120.552C78.5183 119.37 78.5821 118.239 78.6064 117.162Z" fill="#5ABF1B"/>
<path fill-rule="evenodd" clip-rule="evenodd" d="M101.899 116.152C101.374 116.152 100.906 116.284 100.496 116.555C100.086 116.823 99.7761 117.214 99.5665 117.731C99.3569 118.245 99.2536 118.808 99.2536 119.418C99.2536 120.311 99.4784 120.997 99.928 121.472C100.381 121.947 100.946 122.185 101.629 122.185C102.146 122.185 102.61 122.05 103.02 121.776C103.43 121.505 103.74 121.102 103.95 120.57C104.159 120.038 104.263 119.466 104.263 118.859C104.263 118.353 104.181 117.899 104.017 117.493C103.853 117.087 103.582 116.762 103.209 116.516C102.838 116.272 102.401 116.152 101.899 116.152ZM101.985 112.567C103.002 112.567 103.98 112.723 104.922 113.03C105.861 113.34 106.656 113.785 107.304 114.365C107.951 114.946 108.43 115.626 108.737 116.402C109.044 117.177 109.199 118.014 109.199 118.907C109.199 119.776 109.062 120.603 108.786 121.388C108.513 122.17 108.048 122.907 107.389 123.592C106.732 124.278 105.897 124.792 104.886 125.135C103.871 125.475 102.799 125.647 101.666 125.647C100.624 125.647 99.6212 125.496 98.6613 125.195C97.7014 124.895 96.8994 124.456 96.2554 123.878C95.6114 123.301 95.1254 122.612 94.8003 121.806C94.4784 121.003 94.3143 120.158 94.3143 119.271C94.3143 118.386 94.4723 117.541 94.7882 116.735C95.1041 115.932 95.6053 115.207 96.2919 114.567C96.9753 113.926 97.8229 113.43 98.8344 113.087C99.8429 112.741 100.894 112.567 101.985 112.567ZM110.28 108.693C112.61 108.708 115.326 108.717 118.428 108.717L121.468 108.705H124.421L126.022 108.693L125.946 109.887C125.915 110.525 125.891 111.054 125.879 111.475C125.867 111.893 125.861 112.209 125.861 112.423C124.105 112.332 122.659 112.287 121.52 112.287H120.657C120.533 113.722 120.439 115.048 120.372 116.266C120.284 118.011 120.211 119.704 120.162 121.346C120.113 122.988 120.089 124.314 120.089 125.331C118.743 125.313 117.875 125.304 117.48 125.304C117.127 125.304 116.183 125.313 114.652 125.331C115.059 121.379 115.302 117.033 115.384 112.287L110.144 112.423L110.205 111.069C110.238 110.344 110.262 109.553 110.28 108.693ZM87.0482 108.693C88.485 108.708 89.448 108.717 89.931 108.717C90.1527 108.717 91.0367 108.708 92.5798 108.693C92.434 110.522 92.3125 112.251 92.2213 113.884C92.1059 116.161 92.0239 118.287 91.9753 120.266C91.9267 122.245 91.9024 123.932 91.9024 125.331L89.3781 125.304C88.886 125.304 87.8775 125.313 86.3525 125.331C86.8234 118.804 87.0603 113.782 87.0603 110.263L87.0482 108.693Z" fill="#5ABF1B"/>
</svg>
